# xmcd
#
# Track frame offsets:
#	150
#	14865
#	31832
#	46711
#	67571
#	92268
#	109607
#	131219
#	160596
#	177051
#	193878
#	209280
#	225667
#	253304
#	295531
#
# Disc length: 4192 seconds
#
# Revision: 1
# Processed by: cddbd v1.5PL3 Copyright (c) Steve Scherf et al.
# Submitted via: EasyCDDAExtractor 7.0.0.1
#
DISCID=c0105e0f
DTITLE=Eric Clapton - Unplugged
DYEAR=1999
DGENRE=Acoustic
TTITLE0=Signe 
TTITLE1=Before You Accuse Me 
TTITLE2=Hey Hey 
TTITLE3=Tears In Heaven 
TTITLE4=Lonely Stranger 
TTITLE5=Nobody Knows You When You're Down and Out 
TTITLE6=Layla 
TTITLE7=Running On Faith 
TTITLE8=Walkin' Blues 
TTITLE9=Alberta 
TTITLE10=San Francisco Bay Blues 
TTITLE11=Malted Milk 
TTITLE12=Old Love 
TTITLE13=Old Love 
TTITLE14=Rollin' and Tumblin' 
EXTD=
EXTT0=
EXTT1=
EXTT2=
EXTT3=
EXTT4=
EXTT5=
EXTT6=
EXTT7=
EXTT8=
EXTT9=
EXTT10=
EXTT11=
EXTT12=
EXTT13=
EXTT14=
PLAYORDER=
